<?xml version="1.0" encoding="UTF-8" standalone="no"?>
<!-- Created with Inkscape (http://www.inkscape.org/) -->

<svg
   xmlns:dc="http://purl.org/dc/elements/1.1/"
   xmlns:cc="http://creativecommons.org/ns#"
   xmlns:rdf="http://www.w3.org/1999/02/22-rdf-syntax-ns#"
   xmlns:svg="http://www.w3.org/2000/svg"
   xmlns="http://www.w3.org/2000/svg"
   xmlns:sodipodi="http://sodipodi.sourceforge.net/DTD/sodipodi-0.dtd"
   xmlns:inkscape="http://www.inkscape.org/namespaces/inkscape"
   width="78.719048mm"
   height="94.594048mm"
   viewBox="0 0 78.719048 94.594048"
   version="1.1"
   id="svg8"
   inkscape:export-filename="D:\Google Drive\notmahsa.github.io-master\logos\logo.png"
   inkscape:export-xdpi="93.174995"
   inkscape:export-ydpi="93.174995"
   sodipodi:docname="CondensedCar.svg"
   inkscape:version="0.92.1 r15371">
  <defs
     id="defs2" />
  <sodipodi:namedview
     id="base"
     pagecolor="#ffffff"
     bordercolor="#666666"
     borderopacity="1.0"
     inkscape:pageopacity="0.0"
     inkscape:pageshadow="2"
     inkscape:zoom="1.4"
     inkscape:cx="151.15912"
     inkscape:cy="172.81486"
     inkscape:document-units="mm"
     inkscape:current-layer="layer1"
     showgrid="false"
     fit-margin-top="0"
     fit-margin-left="0"
     fit-margin-right="0"
     fit-margin-bottom="0"
     inkscape:window-width="1920"
     inkscape:window-height="1000"
     inkscape:window-x="-11"
     inkscape:window-y="-11"
     inkscape:window-maximized="1" />
  <metadata
     id="metadata5">
    <rdf:RDF>
      <cc:Work
         rdf:about="">
        <dc:format>image/svg+xml</dc:format>
        <dc:type
           rdf:resource="http://purl.org/dc/dcmitype/StillImage" />
        <dc:title />
      </cc:Work>
    </rdf:RDF>
  </metadata>
  <g
     inkscape:groupmode="layer"
     id="layer2"
     inkscape:label="Layer 2"
     transform="translate(-59.670238,-78.857738)">
    <rect
       style="opacity:1;fill:#00bcd4;fill-opacity:1;stroke:#000000;stroke-width:0.1;stroke-miterlimit:4;stroke-dasharray:none;stroke-opacity:1"
       id="rect5045"
       width="78.619049"
       height="94.494049"
       x="59.720238"
       y="78.907738" />
  </g>
  <g
     inkscape:groupmode="layer"
     id="layer3"
     inkscape:label="Layer 3"
     transform="translate(-59.670238,-78.857738)">
    <flowRoot
       xml:space="preserve"
       id="flowRoot5053"
       style="font-style:normal;font-weight:normal;font-size:160px;line-height:1.25;font-family:sans-serif;letter-spacing:0px;word-spacing:0px;fill:#ffffff;fill-opacity:1;stroke:none"
       transform="matrix(0.17486074,0,0,0.17118054,18.263378,123.46454)"><flowRegion
         id="flowRegion5055"
         style="font-size:160px;fill:#ffffff;fill-opacity:1"><rect
           id="rect5057"
           width="154.28574"
           height="185.71429"
           x="368.57144"
           y="112.51968"
           style="font-size:160px;fill:#ffffff;fill-opacity:1" /></flowRegion><flowPara
         id="flowPara5059">B</flowPara></flowRoot>  </g>
  <g
     inkscape:label="Layer 1"
     inkscape:groupmode="layer"
     id="layer1"
     transform="translate(-59.670238,-78.857738)">
    <flowRoot
       xml:space="preserve"
       id="flowRoot4485"
       style="font-style:normal;font-weight:normal;font-size:192px;line-height:1.25;font-family:sans-serif;letter-spacing:0px;word-spacing:0px;fill:#ffffff;fill-opacity:1;stroke:none"
       transform="matrix(0.26240226,0,0,0.26577902,55.583929,78.353009)"><flowRegion
         id="flowRegion4487"
         style="font-size:192px;fill:#ffffff;fill-opacity:1"><rect
           id="rect4489"
           width="214.28571"
           height="242.85713"
           x="62.857143"
           y="131.09111"
           style="font-size:192px;fill:#ffffff;fill-opacity:1" /></flowRegion><flowPara
         id="flowPara4491">P</flowPara></flowRoot>    <rect
       style="opacity:1;fill:#ffff00;fill-opacity:1;stroke:#000000;stroke-width:0.1;stroke-miterlimit:4;stroke-dasharray:none;stroke-opacity:1"
       id="rect5051"
       width="6.0476155"
       height="85.422607"
       x="67.128578"
       y="78.907738" />
    <path
       inkscape:connector-curvature="0"
       d="m 79.834743,109.22207 h 5.023847 v -0.51003 c 0,-2.59873 2.101319,-4.68744 4.661539,-4.68744 2.560213,0 4.661523,2.11299 4.661523,4.68744 v 0.51003 h 20.626698 v -0.51003 c 0,-2.59873 2.10133,-4.68744 4.66156,-4.68744 2.58437,0 4.66155,2.11299 4.66155,4.68744 v 0.51003 h 7.22176 c 1.49751,0 2.70515,-1.21435 2.70515,-2.72017 v -4.1774 c 0,-0.94722 -0.4589,-1.79728 -1.25595,-2.28303 -1.25597,-0.801475 -3.28482,-1.40866 -4.92724,-1.870121 -0.72459,-0.21858 -1.35258,-0.388594 -1.78732,-0.558606 -0.91783,-0.340026 -2.70515,-2.477309 -4.78233,-5.707523 -0.48305,-0.75291 -1.30427,-1.21436 -2.22207,-1.238649 -2.41532,-0.04856 -8.59851,-0.170013 -13.5982,-0.170013 -3.76788,0 -6.159034,0.07288 -7.076843,0.194302 -1.883931,0.267157 -3.188182,2.428729 -4.468295,4.493153 -0.990269,1.627252 -2.028849,3.303073 -3.212345,3.910257 -1.449182,0.72862 -5.531046,1.43295 -11.18287,1.89442 -0.676287,0.0486 -1.304267,0.3643 -1.763176,0.87434 -0.458909,0.51003 -0.724594,1.16578 -0.724594,1.84582 v 2.84162 c 0.07246,1.43296 1.280115,2.6716 2.777606,2.6716 z m -1.690716,-5.56179 c 0,-0.87434 0.676287,-1.62724 1.545798,-1.7001 3.405587,-0.29145 9.419701,-0.92292 11.569316,-1.991565 1.449182,-0.72862 2.560215,-2.525886 3.622944,-4.274572 1.15935,-1.870124 2.342835,-3.813113 3.743714,-4.007405 0.869494,-0.121436 3.212341,-0.194301 6.931921,-0.194301 4.9997,0 11.15873,0.121435 13.57404,0.170012 0.55553,0 1.08689,0.291447 1.37674,0.777198 1.59408,2.477307 3.81618,5.561789 5.28952,6.120406 0.48306,0.170003 1.11103,0.364304 1.85978,0.582896 1.56996,0.461452 3.52636,1.044351 4.66155,1.772971 0.48307,0.31573 0.7729,0.85007 0.7729,1.43295 v 4.17742 c 0,0.9472 -0.74875,1.70011 -1.69071,1.70011 h -6.23151 c -0.26567,-2.91448 -2.70515,-5.19749 -5.65182,-5.19749 -2.97083,0 -5.41029,2.28301 -5.65183,5.19749 H 95.220235 c -0.265684,-2.91448 -2.705144,-5.19749 -5.651805,-5.19749 -2.970817,0 -5.410282,2.28301 -5.651812,5.19749 h -4.081875 c -0.94197,0 -1.690716,-0.75291 -1.690716,-1.70011 z"
       id="path36"
       style="fill:#ffffff;fill-opacity:1;stroke-width:17.48869705;stroke-miterlimit:4;stroke-dasharray:none" />
    <path
       inkscape:connector-curvature="0"
       d="m 89.520129,104.12174 c -2.511914,0 -4.564928,2.06442 -4.564928,4.5903 0,2.52588 2.053014,4.5903 4.564928,4.5903 2.511911,0 4.564911,-2.06442 4.564911,-4.5903 0,-2.55016 -2.053,-4.5903 -4.564911,-4.5903 z m 0,8.13626 c -1.956392,0 -3.550498,-1.60298 -3.550498,-3.57025 0,-1.96727 1.594106,-3.57023 3.550498,-3.57023 1.956395,0 3.550491,1.60296 3.550491,3.57023 -0.02416,1.99156 -1.594096,3.57025 -3.550491,3.57025 z"
       id="path38"
       style="fill:#ffffff;fill-opacity:1;stroke-width:3.08039522;stroke-miterlimit:4;stroke-dasharray:none" />
    <path
       inkscape:connector-curvature="0"
       d="m 119.44574,104.12174 c -2.51191,0 -4.56492,2.06442 -4.56492,4.5903 0,2.52588 2.05301,4.5903 4.56492,4.5903 2.51193,0 4.56495,-2.06442 4.56495,-4.5903 0,-2.55016 -2.05302,-4.5903 -4.56495,-4.5903 z m 0,8.13626 c -1.95639,0 -3.5505,-1.60298 -3.5505,-3.57025 0,-1.96727 1.59411,-3.57023 3.5505,-3.57023 1.95641,0 3.55052,1.60296 3.55052,3.57023 0,1.99156 -1.59411,3.57025 -3.55052,3.57025 z"
       id="path40"
       style="fill:#ffffff;fill-opacity:1;stroke-width:3.08039522;stroke-miterlimit:4;stroke-dasharray:none" />
    <path
       inkscape:connector-curvature="0"
       d="m 94.302419,99.36143 h 10.023491 c 0.38645,0 0.70044,-0.315736 0.70044,-0.704331 v -6.217552 c 0,-0.388604 -0.31399,-0.70434 -0.70044,-0.70434 v 0 c -5.772571,0.07288 -6.110713,0.291447 -6.207328,0.364314 -1.014416,0.655754 -3.188195,4.177417 -4.395843,6.217552 -0.120815,0.218591 -0.144917,0.485751 0,0.704332 0.09666,0.21859 0.313999,0.340025 0.57968,0.340025 z m -0.120816,-0.777198 c 1.980546,-3.327361 3.550483,-5.56179 4.226766,-6.023251 0.26568,-0.09716 2.197921,-0.242878 5.917491,-0.291447 0.0725,0 0.14492,0.07288 0.14492,0.145722 v 6.217554 c 0,0.07288 -0.0725,0.145724 -0.14492,0.145724 H 94.30237 c -0.07249,0 -0.09666,-0.04856 -0.120815,-0.07288 0,0 -0.02416,-0.04856 0,-0.121436 z"
       id="path42"
       style="fill:#ffffff;fill-opacity:1;stroke-width:3.08039522;stroke-miterlimit:4;stroke-dasharray:none" />
    <path
       inkscape:connector-curvature="0"
       d="m 106.86198,99.36143 h 8.33282 c 0.57969,0 1.06275,-0.48575 1.06275,-1.068646 v -5.488932 c 0,-0.582897 -0.48306,-1.068645 -1.06275,-1.068645 h -8.33282 c -0.57967,0 -1.06273,0.485748 -1.06273,1.068645 v 5.488932 c -0.0242,0.582896 0.4589,1.068646 1.06273,1.068646 z m -0.50721,-6.557578 c 0,-0.291447 0.21738,-0.510029 0.50721,-0.510029 h 8.33282 c 0.28985,0 0.50722,0.218582 0.50722,0.510029 v 5.488932 c 0,0.291448 -0.21737,0.51004 -0.50722,0.51004 h -8.33282 c -0.28983,0 -0.50721,-0.218592 -0.50721,-0.51004 z"
       id="path44"
       style="fill:#ffffff;fill-opacity:1;stroke-width:3.08039522;stroke-miterlimit:4;stroke-dasharray:none" />
    <path
       inkscape:connector-curvature="0"
       d="m 117.63426,99.36143 h 6.5938 c 0.24154,0 0.45892,-0.145724 0.53137,-0.364305 0.0725,-0.218591 0.0241,-0.485751 -0.16907,-0.631474 -0.72459,-0.607185 -1.28011,-1.117214 -1.76318,-1.627253 -0.55552,-0.582896 -1.06273,-1.287226 -1.4975,-2.112992 -0.4106,-0.801487 -0.9178,-1.67583 -1.54579,-2.307303 -0.53137,-0.534319 -1.08688,-0.582896 -1.6424,-0.582896 -0.0483,0 -0.12082,0 -0.16908,0 -0.0967,0 -0.21737,0 -0.33815,0 v 0 c -0.31398,0 -0.55552,0.267167 -0.55552,0.558616 0,1.141502 0,5.148906 0,6.484711 0,0.145723 0.0483,0.291449 0.16907,0.412884 0.0967,0.121435 0.24154,0.170012 0.38645,0.170012 z m 0,-7.043327 c 0.12082,0 0.24154,0 0.33815,0 0.0483,0 0.12081,0 0.16908,0 0.48306,0 0.84535,0.02432 1.2318,0.412891 0.55553,0.558607 1.03859,1.408662 1.44919,2.161572 0.45892,0.874342 0.99027,1.627251 1.59411,2.234427 0.5072,0.510038 1.06272,1.044356 1.81147,1.675831 0,0 0,0 0,0 h -6.5938 c 0,-1.335806 0,-5.367499 0,-6.484721 z"
       id="path46"
       style="fill:#ffffff;fill-opacity:1;stroke-width:3.08039522;stroke-miterlimit:4;stroke-dasharray:none" />
  </g>
</svg>
